<?xml version="1.0" standalone="no"?>
<!DOCTYPE svg PUBLIC "-//W3C//DTD SVG 20010904//EN"
 "http://www.w3.org/TR/2001/REC-SVG-20010904/DTD/svg10.dtd">
<svg version="1.0" xmlns="http://www.w3.org/2000/svg"
 width="578.000000pt" height="539.000000pt" viewBox="0 0 578.000000 539.000000"
 preserveAspectRatio="xMidYMid meet">

<g transform="translate(0.000000,539.000000) scale(0.100000,-0.100000)"
fill="#000000" stroke="none">
<path d="M0 3858 l0 -1532 28 45 c16 24 120 202 232 394 266 457 742 1163
1110 1645 330 433 720 961 720 975 0 3 -470 5 -1045 5 l-1045 0 0 -1532z"/>
<path d="M2334 5363 c-9 -16 -218 -296 -462 -623 -245 -327 -499 -669 -566
-760 -145 -200 -597 -881 -590 -891 2 -4 107 -81 232 -172 176 -128 369 -250
862 -549 349 -212 659 -400 688 -418 50 -30 53 -35 48 -63 -3 -16 -6 -47 -6
-68 l0 -38 -235 140 c-176 104 -242 139 -268 139 -36 0 -57 15 -57 41 0 15
-615 417 -1162 759 -92 58 -168 112 -170 120 -2 8 -145 -218 -318 -502 l-315
-516 -5 147 c-3 80 -7 -361 -8 -981 l-2 -1128 2890 0 2890 0 0 2695 0 2695
-1714 0 -1714 0 -18 -27z m2044 -509 c33 -23 30 -85 -8 -151 -17 -29 -32 -53
-34 -53 -3 0 -21 26 -40 57 -42 68 -45 104 -11 138 28 29 61 32 93 9z m633
-53 c-11 -7 -9 -10 7 -15 26 -9 38 -42 21 -62 -19 -23 -63 -14 -67 13 -4 24
36 89 46 78 4 -3 0 -10 -7 -14z m-538 -84 c18 -4 17 -5 -5 -6 -27 -1 -28 0
-26 52 l2 52 3 -47 c3 -39 8 -47 26 -51z m137 79 c0 -9 7 -12 18 -9 24 6 44
-19 40 -49 -2 -19 -10 -24 -40 -26 l-38 -3 0 50 c0 28 5 51 10 51 6 0 10 -6
10 -14z m336 0 c9 -9 10 -17 4 -21 -14 -9 -12 -52 3 -59 6 -3 3 -5 -8 -3 -14
2 -22 12 -25 37 -6 34 -3 60 7 60 2 0 11 -6 19 -14z m-376 -49 c0 -37 -1 -38
-32 -35 -28 3 -34 7 -36 32 -4 32 11 46 46 43 19 -1 22 -7 22 -40z m180 29
c19 -23 8 -61 -18 -64 -44 -7 -67 32 -36 62 19 20 38 20 54 2z m58 0 c-10 -7
-18 -25 -18 -40 0 -14 -4 -26 -10 -26 -10 0 -15 62 -5 71 2 3 14 5 27 6 21 2
22 1 6 -11z m92 -28 c0 -35 -2 -38 -28 -38 -31 0 -52 16 -52 40 0 25 21 40 52
38 25 -2 28 -6 28 -40z m187 24 c-8 -9 -17 -28 -20 -42 -3 -17 -5 -12 -6 15
-1 35 2 41 20 42 19 2 20 0 6 -15z m30 -44 c-2 -13 -4 -3 -4 22 0 25 2 35 4
23 2 -13 2 -33 0 -45z m87 46 c20 -19 20 -38 2 -54 -23 -19 -61 -8 -64 18 -7
44 32 67 62 36z m-1946 -340 c33 -23 30 -85 -8 -151 -17 -29 -32 -53 -34 -53
-3 0 -21 26 -40 57 -42 68 -45 104 -11 138 28 29 61 32 93 9z m252 -74 c0 -33
-4 -60 -10 -60 -6 0 -10 27 -10 60 0 33 4 60 10 60 6 0 10 -27 10 -60z m437
24 c15 -24 15 -29 2 -53 -11 -19 -24 -27 -52 -29 l-37 -3 0 55 0 56 35 0 c26
0 39 -6 52 -26z m-470 0 c3 -8 1 -20 -5 -26 -8 -8 -8 -15 -1 -25 19 -22 2 -43
-36 -43 l-35 0 0 55 0 55 35 0 c23 0 38 -6 42 -16z m127 -15 l14 -21 11 21
c14 25 53 28 71 6 17 -20 5 -32 -15 -15 -18 15 -45 7 -45 -13 0 -8 7 -20 15
-27 12 -10 18 -10 30 0 17 14 31 8 20 -9 -9 -16 -61 -13 -75 4 -12 14 -15 14
-30 0 -23 -21 -57 -19 -70 4 -14 27 -13 37 6 55 22 22 50 20 68 -5z m194 9
c35 -35 -14 -102 -57 -78 -14 7 -21 21 -21 38 0 33 16 52 45 52 12 0 26 -5 33
-12z m-1810 -584 c33 -23 30 -85 -8 -151 -17 -29 -32 -53 -34 -53 -14 0 -76
119 -76 146 0 59 69 93 118 58z m302 -14 c0 -5 -6 -10 -12 -10 -10 0 -9 -3 1
-9 9 -6 10 -11 2 -15 -6 -4 -11 -20 -11 -37 0 -16 -4 -29 -10 -29 -13 0 -13
66 0 91 11 20 30 26 30 9z m222 -3 c-8 -10 -6 -16 9 -25 29 -18 22 -66 -9 -70
-28 -4 -52 14 -52 38 0 9 11 29 25 44 24 26 47 37 27 13z m-365 -13 c3 -9 1
-25 -5 -35 -7 -11 -8 -20 -2 -24 13 -8 13 -25 1 -25 -5 0 -13 9 -16 20 -3 11
-11 20 -16 20 -5 0 -9 -9 -9 -20 0 -11 -4 -20 -10 -20 -11 0 -14 83 -3 93 13
13 54 7 60 -9z m303 -18 c-14 -14 -12 -53 3 -60 6 -3 3 -5 -8 -3 -14 2 -22 12
-25 37 -8 50 -3 62 21 47 12 -7 15 -15 9 -21z m-220 -1 c7 -8 10 -25 6 -40
-11 -41 -76 -29 -76 15 0 36 47 53 70 25z m130 1 c6 -8 10 -25 8 -38 -4 -30
-46 -38 -65 -12 -17 23 -16 29 3 48 19 20 38 20 54 2z m40 -26 c0 -22 -4 -40
-10 -40 -11 0 -14 63 -3 73 11 12 13 8 13 -33z m220 -2 c0 -21 -4 -38 -10 -38
-5 0 -10 16 -10 35 0 26 -3 33 -15 29 -9 -4 -15 -19 -15 -35 0 -16 -4 -29 -10
-29 -10 0 -14 62 -5 72 3 2 18 4 35 4 28 0 30 -2 30 -38z m84 20 c11 -15 12
-26 5 -40 -13 -24 -55 -23 -69 1 -13 25 -13 27 6 45 21 22 40 20 58 -6z m-811
-170 c74 -31 80 -32 92 -15 6 9 15 17 18 17 6 0 278 -167 289 -178 5 -5 -14
-43 -42 -86 -27 -42 -50 -80 -50 -83 0 -4 7 -15 16 -25 16 -16 14 -21 -26 -75
-24 -32 -45 -60 -47 -62 -1 -2 -15 2 -29 10 -28 15 -24 18 -85 -60 l-19 -24
-41 19 -42 18 -21 -27 c-12 -15 -25 -27 -29 -27 -10 0 -318 179 -335 195 -11
10 10 49 114 211 133 209 143 224 152 224 3 0 41 -15 85 -32z m1225 -84 c33
-23 30 -85 -8 -151 -17 -29 -32 -53 -34 -53 -3 0 -21 26 -40 57 -42 68 -45
104 -11 138 28 29 61 32 93 9z m176 -66 c5 -36 4 -58 -2 -58 -10 0 -21 107
-13 116 7 7 8 2 15 -58z m394 55 c-36 -5 -40 -42 -5 -44 16 -1 18 -2 5 -6 -26
-7 -22 -41 5 -46 16 -3 13 -5 -10 -6 l-33 -1 0 55 0 55 33 -1 c30 -2 30 -2 5
-6z m-433 -68 c0 -49 -1 -50 -31 -53 -35 -3 -44 12 -44 76 0 32 1 33 38 30
l37 -3 0 -50z m130 25 l18 -20 14 20 c17 24 46 26 63 5 11 -13 8 -14 -19 -9
-23 5 -32 2 -37 -11 -9 -23 21 -54 38 -37 17 17 33 15 18 -3 -19 -23 -59 -19
-69 7 l-8 22 -12 -22 c-21 -40 -81 -23 -81 23 0 45 44 59 75 25z m186 10 c37
-20 18 -80 -26 -80 -42 0 -59 44 -29 74 18 19 28 20 55 6z m-2671 -695 c28
-14 50 -28 50 -31 0 -6 -36 -70 -47 -83 -5 -7 -103 42 -103 51 0 12 39 88 46
88 2 0 27 -11 54 -25z m3408 -171 c33 -23 30 -85 -8 -151 -17 -29 -32 -53 -34
-53 -3 0 -21 26 -40 57 -42 68 -45 104 -11 138 28 29 61 32 93 9z m452 -70 l0
-55 -37 3 c-34 3 -38 6 -41 33 -4 33 18 56 48 48 14 -4 20 0 20 11 0 9 2 16 5
16 3 0 5 -25 5 -56z m-302 34 c15 -15 16 -64 2 -73 -8 -5 -7 -11 1 -21 7 -9 8
-14 1 -14 -6 0 -14 5 -17 10 -3 6 -16 10 -29 10 -29 0 -46 18 -46 50 0 33 17
50 50 50 14 0 31 -5 38 -12z m202 -50 l0 -39 -37 3 c-34 3 -38 6 -41 33 -4 35
17 54 53 47 22 -4 25 -10 25 -44z m189 42 c9 4 29 6 44 3 24 -5 27 -10 27 -45
l0 -39 -42 3 c-41 3 -43 5 -46 36 -4 42 -26 37 -30 -6 -5 -46 -22 -40 -22 7 0
29 4 41 18 44 9 2 21 0 26 -4 5 -5 16 -4 25 1z m-324 -65 c15 0 22 9 26 35 l6
35 2 -43 c1 -43 1 -43 -31 -40 -31 3 -33 6 -35 43 l-1 40 6 -35 c5 -26 12 -35
27 -35z m-3141 -170 c140 -89 219 -133 230 -129 10 4 16 1 16 -9 0 -23 18 -31
36 -16 25 21 64 -4 64 -41 0 -16 4 -30 8 -30 5 0 7 13 4 30 -3 24 0 32 22 41
27 12 56 0 56 -24 0 -7 -4 -7 -12 1 -22 22 -48 14 -48 -13 0 -31 24 -43 47
-24 14 12 16 12 11 -1 -2 -8 -17 -16 -32 -18 -25 -3 -18 -9 61 -59 127 -80
122 -71 74 -142 -23 -34 -44 -61 -46 -61 -2 0 -99 59 -215 130 -116 72 -215
130 -220 130 -5 0 -11 -8 -14 -17 -4 -10 -15 -29 -25 -42 l-18 -23 -36 58
c-21 32 -37 70 -37 85 0 23 -15 35 -115 95 -63 38 -115 73 -115 77 0 13 74
137 83 137 4 0 103 -61 221 -135z m-46 -295 c149 -96 270 -179 269 -185 -3
-15 -91 -145 -98 -145 -4 0 -71 38 -150 85 -78 47 -150 85 -160 85 -10 0 -23
8 -28 18 -5 9 -23 25 -40 35 -28 16 -32 16 -37 3 -13 -33 23 -65 41 -36 3 6
11 10 17 10 7 0 6 -6 -2 -15 -31 -38 -94 1 -70 44 9 17 1 24 -65 63 -41 24
-75 46 -75 51 0 16 106 167 116 164 6 -1 133 -81 282 -177z m566 137 c12 -9
17 -23 14 -42 -2 -25 -8 -31 -33 -33 -19 -3 -33 2 -42 14 -17 24 -17 30 7 54
24 24 30 24 54 7z m-1156 -173 c12 -8 22 -25 22 -37 0 -15 13 -29 40 -45 l40
-23 0 46 c0 43 1 45 29 45 36 0 59 -24 42 -44 -8 -10 -9 -16 -1 -21 17 -11 11
-35 -11 -43 -18 -7 -7 -17 76 -67 69 -42 99 -55 104 -46 6 9 66 -24 204 -111
108 -68 196 -127 197 -131 0 -4 -73 -135 -161 -291 l-161 -283 -46 13 c-25 8
-50 14 -56 14 -7 0 -34 -38 -61 -85 -28 -46 -55 -85 -62 -85 -7 0 -28 8 -48
17 -19 9 -36 15 -38 12 -11 -12 -107 -174 -107 -179 0 -3 29 -23 65 -45 36
-22 65 -44 65 -48 0 -13 -90 -176 -100 -182 -11 -7 -709 406 -710 419 0 5 25
52 56 104 51 88 54 97 43 124 -9 22 -9 35 1 57 10 26 27 37 80 54 11 3 364
595 417 699 2 4 -6 22 -17 40 -27 45 -25 83 5 113 28 29 61 32 93 9z m212 -69
c0 -30 -4 -55 -10 -55 -5 0 -10 25 -10 55 0 30 5 55 10 55 6 0 10 -25 10 -55z
m84 22 c12 -9 17 -23 14 -42 -2 -25 -8 -31 -33 -33 -19 -3 -33 2 -42 14 -17
24 -17 30 7 54 24 24 30 24 54 7z m1251 -203 c140 -88 213 -140 208 -147 -4
-7 -27 -42 -51 -80 -40 -62 -45 -66 -65 -56 -74 39 -394 224 -405 234 -11 10
-4 28 38 99 28 47 53 86 55 86 2 0 101 -61 220 -136z m-178 -260 c115 -69 211
-129 215 -133 7 -6 -76 -161 -86 -161 -7 0 -429 249 -439 259 -5 5 10 38 42
85 29 42 54 76 56 76 3 0 98 -57 212 -126z m2401 -170 c33 -23 30 -85 -8 -151
-17 -29 -32 -53 -34 -53 -3 0 -21 26 -40 57 -42 68 -45 104 -11 138 28 29 61
32 93 9z m351 -81 c-1 -51 -9 -67 -37 -71 -28 -4 -52 14 -52 39 0 26 29 51 51
44 13 -4 19 -2 19 9 0 9 5 16 10 16 6 0 10 -17 9 -37z m31 27 c0 -5 -4 -10
-10 -10 -5 0 -10 5 -10 10 0 6 5 10 10 10 6 0 10 -4 10 -10z m125 -1 c-4 -6 1
-16 10 -23 11 -8 16 -22 13 -41 -3 -27 -7 -30 -38 -30 -31 0 -35 3 -38 27 -4
31 23 78 45 78 8 0 11 -5 8 -11z m115 1 c0 -5 -4 -10 -10 -10 -5 0 -10 5 -10
10 0 6 5 10 10 10 6 0 10 -4 10 -10z m-479 -53 c10 -26 14 -47 9 -47 -6 0 -10
5 -10 10 0 14 -43 12 -59 -2 -15 -14 -16 -16 10 55 7 20 17 36 22 34 6 -2 18
-24 28 -50z m285 38 c9 -8 11 -15 5 -15 -15 0 -14 -57 2 -64 6 -3 3 -5 -8 -3
-14 2 -22 12 -25 37 -6 34 -3 60 7 60 2 0 11 -7 19 -15z m152 -22 c-9 -10 -18
-29 -21 -43 -3 -16 -5 -11 -6 17 -1 32 3 42 17 45 25 6 27 1 10 -19z m133 -4
c15 -29 -6 -59 -41 -59 -20 0 -31 6 -35 20 -18 58 47 92 76 39z m-518 -46 c15
-14 37 8 37 37 0 16 3 30 8 30 4 0 6 -18 4 -40 -4 -36 -7 -40 -32 -40 -30 0
-41 16 -39 58 1 25 2 24 9 -6 4 -18 10 -36 13 -39z m187 25 c0 -32 -3 -39 -10
-28 -13 20 -13 70 0 70 6 0 10 -19 10 -42z m240 2 c0 -22 -4 -40 -10 -40 -5 0
-10 18 -10 40 0 22 5 40 10 40 6 0 10 -18 10 -40z m-3409 -131 c141 -91 142
-92 169 -75 61 35 110 9 110 -60 l0 -44 100 -65 c95 -62 100 -66 89 -88 -21
-39 -142 -232 -154 -245 -9 -11 -71 22 -316 169 -167 100 -310 187 -317 194
-11 10 1 37 68 146 81 132 99 159 106 159 2 0 67 -41 145 -91z m1990 31 c31
-17 26 -93 -11 -157 -17 -29 -32 -53 -34 -53 -13 0 -76 119 -76 143 0 56 69
94 121 67z m129 -84 c0 -34 4 -46 18 -49 10 -3 6 -5 -10 -6 -27 -1 -28 1 -28
49 0 28 5 50 10 50 6 0 10 -20 10 -44z m148 -4 l9 -27 13 28 c7 15 17 27 22
27 11 0 10 -2 -7 -44 -19 -45 -32 -46 -50 -3 l-14 32 -1 -31 c0 -26 -5 -33
-27 -37 -21 -4 -33 -1 -45 15 -10 11 -18 24 -18 28 0 20 32 38 69 38 34 1 41
-3 49 -26z m355 11 c-7 -3 -13 -18 -13 -34 0 -16 -4 -29 -10 -29 -5 0 -10 15
-10 34 0 25 5 36 18 38 20 5 32 -3 15 -9z m-232 -15 c13 -26 28 -38 47 -38 20
0 14 17 -8 23 -29 8 -26 37 5 37 14 0 25 -4 25 -9 0 -5 -10 -7 -22 -5 l-23 5
23 -17 c12 -9 22 -23 22 -30 0 -16 -46 -19 -55 -3 -5 7 -13 5 -25 -6 -15 -13
-23 -14 -39 -5 -20 10 -29 49 -14 63 15 15 53 6 64 -15z m96 -30 c-2 -13 -4
-5 -4 17 -1 22 1 32 4 23 2 -10 2 -28 0 -40z m83 48 c0 -2 3 -11 6 -20 5 -13
-1 -16 -26 -16 -20 0 -29 -4 -24 -11 3 -6 15 -9 25 -6 11 3 19 1 19 -5 0 -5
-12 -8 -27 -6 -47 5 -45 68 2 68 14 0 25 -2 25 -4z m-2151 -45 c12 -7 17 -22
16 -58 l0 -48 -37 -3 -38 -3 0 60 c0 55 2 61 21 61 11 0 28 -4 38 -9z m51 -51
c0 -33 -4 -60 -10 -60 -6 0 -10 27 -10 60 0 33 4 60 10 60 6 0 10 -27 10 -60z
m447 48 c6 -7 10 -33 9 -58 -1 -45 -1 -45 -38 -48 l-38 -3 0 60 c0 60 0 61 29
61 16 0 33 -6 38 -12z m-349 -30 c7 -7 12 -21 12 -33 0 -12 -5 -26 -12 -33 -7
-7 -21 -12 -33 -12 -12 0 -26 5 -33 12 -7 7 -12 21 -12 33 0 12 5 26 12 33 7
7 21 12 33 12 12 0 26 -5 33 -12z m110 -6 c3 -11 0 -12 -17 -2 -39 21 -69 -23
-35 -51 13 -10 19 -10 36 0 16 10 19 10 16 -1 -3 -7 -19 -13 -38 -13 -37 0
-53 25 -39 63 7 19 15 23 41 20 17 -2 33 -9 36 -16z m105 -3 c5 -9 7 -28 3
-43 -6 -24 -11 -27 -43 -24 -44 4 -60 34 -36 67 17 26 60 25 76 0z m-1030
-464 c31 -22 57 -45 57 -51 0 -7 -8 -22 -18 -35 l-19 -22 -79 42 c-43 23 -83
46 -87 51 -5 4 1 26 13 49 l21 42 28 -18 c15 -10 53 -36 84 -58z m961 -18 c-4
-29 -8 -53 -9 -55 -4 -4 -65 27 -65 33 0 2 10 25 22 49 18 38 24 43 40 35 16
-9 18 -18 12 -62z m-1054 -99 c44 -29 80 -56 80 -60 0 -10 -90 -157 -100 -163
-12 -8 -171 97 -167 110 4 20 92 165 100 165 4 0 43 -24 87 -52z"/>
<path d="M4304 4826 c-12 -31 0 -51 31 -51 27 0 30 3 30 30 0 25 -4 30 -28 33
-17 2 -29 -2 -33 -12z"/>
<path d="M4983 4754 c-3 -8 -1 -20 5 -26 16 -16 42 -2 42 22 0 24 -38 28 -47
4z"/>
<path d="M4621 4770 c-19 -11 -9 -45 14 -45 13 0 21 8 23 21 3 23 -17 37 -37
24z"/>
<path d="M4521 4770 c-19 -11 -9 -45 14 -45 13 0 21 8 23 21 3 23 -17 37 -37
24z"/>
<path d="M4713 4773 c-7 -3 -13 -16 -13 -29 0 -28 34 -34 44 -7 8 19 -13 43
-31 36z"/>
<path d="M4842 4748 c4 -27 33 -36 42 -13 8 22 -1 35 -25 35 -15 0 -20 -6 -17
-22z"/>
<path d="M5153 4754 c-3 -8 -1 -20 5 -26 16 -16 42 -2 42 22 0 24 -38 28 -47
4z"/>
<path d="M3184 4406 c-12 -31 0 -51 31 -51 27 0 30 3 30 30 0 25 -4 30 -28 33
-17 2 -29 -2 -33 -12z"/>
<path d="M3880 4351 c0 -33 3 -41 19 -41 48 0 56 73 9 78 -27 3 -28 1 -28 -37z"/>
<path d="M3420 4364 c0 -9 7 -14 17 -12 25 5 28 28 4 28 -12 0 -21 -6 -21 -16z"/>
<path d="M3420 4319 c0 -25 33 -22 38 4 2 12 -3 17 -17 17 -15 0 -21 -6 -21
-21z"/>
<path d="M3544 4355 c-9 -23 4 -47 23 -43 11 2 19 14 21 31 3 22 -1 27 -18 27
-11 0 -23 -7 -26 -15z"/>
<path d="M3747 4364 c-4 -4 -7 -16 -7 -26 0 -14 6 -19 23 -16 14 2 22 10 22
23 0 20 -25 32 -38 19z"/>
<path d="M1914 3766 c-12 -31 0 -51 31 -51 27 0 30 3 30 30 0 25 -4 30 -28 33
-17 2 -29 -2 -33 -12z"/>
<path d="M2482 3718 c4 -27 33 -36 42 -13 8 22 -1 35 -25 35 -15 0 -20 -6 -17
-22z"/>
<path d="M2100 3744 c0 -9 7 -14 17 -12 25 5 28 28 4 28 -12 0 -21 -6 -21 -16z"/>
<path d="M2188 3733 c6 -2 18 -2 25 0 6 3 1 5 -13 5 -14 0 -19 -2 -12 -5z"/>
<path d="M2180 3700 c0 -5 9 -10 20 -10 11 0 20 5 20 10 0 6 -9 10 -20 10 -11
0 -20 -4 -20 -10z"/>
<path d="M2318 3733 c6 -2 18 -2 25 0 6 3 1 5 -13 5 -14 0 -19 -2 -12 -5z"/>
<path d="M2315 3700 c3 -5 12 -10 20 -10 8 0 17 5 20 10 4 6 -5 10 -20 10 -15
0 -24 -4 -20 -10z"/>
<path d="M2652 3718 c2 -15 10 -23 23 -23 30 0 27 39 -3 43 -20 3 -23 0 -20
-20z"/>
<path d="M3044 3456 c-12 -31 0 -51 31 -51 27 0 30 3 30 30 0 25 -4 30 -28 33
-17 2 -29 -2 -33 -12z"/>
<path d="M3200 3430 c0 -22 7 -25 29 -11 16 10 6 31 -15 31 -8 0 -14 -9 -14
-20z"/>
<path d="M3200 3380 c0 -21 16 -26 39 -11 18 11 5 31 -20 31 -12 0 -19 -7 -19
-20z"/>
<path d="M3330 3406 c0 -29 11 -39 35 -30 24 10 15 48 -12 52 -19 3 -23 -1
-23 -22z"/>
<path d="M3522 3403 c2 -20 9 -28 23 -28 14 0 21 8 23 28 3 23 0 27 -23 27
-23 0 -26 -4 -23 -27z"/>
<path d="M4234 2546 c-12 -31 0 -51 31 -51 27 0 30 3 30 30 0 25 -4 30 -28 33
-17 2 -29 -2 -33 -12z"/>
<path d="M4700 2505 c-11 -13 -11 -19 3 -33 20 -19 41 -5 35 24 -4 24 -22 28
-38 9z"/>
<path d="M4390 2525 c-10 -12 -10 -21 -1 -41 13 -29 47 -30 65 -1 23 37 -36
76 -64 42z"/>
<path d="M4600 2505 c-11 -13 -11 -19 3 -33 20 -19 41 -5 35 24 -4 24 -22 28
-38 9z"/>
<path d="M4857 2513 c-11 -10 -8 -41 4 -49 6 -3 18 1 27 9 13 13 13 19 2 31
-14 17 -23 20 -33 9z"/>
<path d="M1670 2120 c0 -5 9 -14 20 -20 17 -9 20 -8 20 10 0 13 -7 20 -20 20
-11 0 -20 -4 -20 -10z"/>
<path d="M1357 2109 c7 -7 15 -10 18 -7 3 3 -2 9 -12 12 -14 6 -15 5 -6 -5z"/>
<path d="M1854 2115 c-8 -21 2 -45 19 -45 21 0 38 25 31 44 -8 20 -43 21 -50
1z"/>
<path d="M674 1936 c-19 -48 33 -77 54 -31 7 15 10 31 7 36 -10 14 -55 11 -61
-5z"/>
<path d="M870 1914 c0 -9 7 -14 17 -12 25 5 28 28 4 28 -12 0 -21 -6 -21 -16z"/>
<path d="M870 1870 c0 -15 5 -20 18 -18 9 2 17 10 17 18 0 8 -8 16 -17 18 -13
2 -18 -3 -18 -18z"/>
<path d="M212 1058 c-14 -14 -16 -38 -4 -38 5 0 14 11 20 25 12 26 4 33 -16
13z"/>
<path d="M994 1895 c-8 -21 2 -45 19 -45 21 0 38 25 31 44 -8 20 -43 21 -50 1z"/>
<path d="M4444 1256 c-12 -31 0 -51 31 -51 27 0 30 3 30 30 0 25 -4 30 -28 33
-17 2 -29 -2 -33 -12z"/>
<path d="M4800 1185 c-10 -12 -10 -18 0 -30 16 -19 39 -19 46 0 6 15 -11 45
-26 45 -4 0 -13 -7 -20 -15z"/>
<path d="M4990 1185 c-11 -13 -11 -19 3 -33 20 -19 41 -5 35 24 -4 24 -22 28
-38 9z"/>
<path d="M4627 1196 c-11 -27 -8 -36 8 -36 16 0 17 5 6 34 -7 18 -8 18 -14 2z"/>
<path d="M5174 1185 c-8 -21 2 -45 20 -45 17 0 28 24 20 45 -4 8 -13 15 -20
15 -8 0 -17 -7 -20 -15z"/>
<path d="M1915 939 c-5 -7 2 -19 16 -30 35 -27 51 -24 47 9 -2 21 -9 28 -30
30 -14 2 -29 -2 -33 -9z" class="B"/>
<path d="M3644 1036 c-12 -31 0 -51 31 -51 27 0 30 3 30 30 0 25 -4 30 -28 33
-17 2 -29 -2 -33 -12z"/>
<path d="M3906 981 c-10 -16 5 -42 23 -39 21 4 21 42 -1 46 -9 2 -19 -1 -22
-7z"/>
<path d="M4072 968 c2 -13 10 -23 18 -23 8 0 16 10 18 23 3 17 -2 22 -18 22
-16 0 -21 -5 -18 -22z"/>
<path d="M4250 980 c0 -5 9 -10 20 -10 11 0 20 5 20 10 0 6 -9 10 -20 10 -11
0 -20 -4 -20 -10z"/>
<path d="M2110 925 c0 -8 9 -15 20 -15 11 0 20 7 20 15 0 8 -9 15 -20 15 -11
0 -20 -7 -20 -15z"/>
<path d="M2110 869 c0 -14 5 -19 17 -17 26 5 29 38 4 38 -15 0 -21 -6 -21 -21z"/>
<path d="M2600 925 c0 -8 9 -15 20 -15 11 0 20 7 20 15 0 8 -9 15 -20 15 -11
0 -20 -7 -20 -15z"/>
<path d="M2600 870 c0 -16 5 -21 23 -18 12 2 22 10 22 18 0 8 -10 16 -22 18
-18 3 -23 -2 -23 -18z"/>
<path d="M2244 906 c-10 -26 0 -51 21 -51 16 0 20 7 20 30 0 33 -30 49 -41 21z"/>
<path d="M2450 905 c-17 -21 -2 -50 26 -50 14 0 19 7 19 30 0 34 -24 45 -45
20z"/>
<path d="M2002 2088 c3 -7 13 -15 24 -17 16 -3 17 -1 5 13 -16 19 -34 21 -29
4z"/>
</g>
</svg>
